. 
  
http://www.torrentday.com/        :     The Hottest Private Tracker On The Net!!!
 
http://www.torrentday.com          :     Once & For all ;)


               www . TorrentDay . Com 

(((((((((((((= Enjoy No RAR releases =))))))))))))))))))))


...................................NFO:....................................

.[img]http://www.leetleech.org/images/51212422285942412432.jpg[/img]

::::::::::::::Enjoy:Another:Release:From:T0XiC::::::::::::::

File:: Gullivers.Travels.2010.R5.AC3.XViD-T0XiC-iNK
Video Source:: ....Elektri4ka
Audio Source:: ....Own LiNE
Language::English
IMDB::http://www.imdb.com/title/tt1320261/

Travel writer Lemuel Gulliver takes an assignment in Bermuda, but ends up on the island of 
Liliput, where he towers over its tiny citizens.

Specs::

General

Format                           : AVI
Format/Info                      : Audio Video Interleave
File size                        : 1.40 GiB
Duration                         : 1h 21mn
Overall bit rate                 : 2 475 Kbps
Writing application              : VirtualDubMod 1.5.10.2 (build 2540/release)
Writing library                  : VirtualDubMod build 2540/release

Video
ID                               : 0
Format                           : MPEG-4 Visual
Format profile                   : Advanced Simple@L5
Format settings, BVOP            : Yes
Format settings, QPel            : No
Format settings, GMC             : No warppoints
Format settings, Matrix          : Custom
Codec ID                         : XVID
Codec ID/Hint                    : XviD
Duration                         : 1h 21mn
Bit rate                         : 2 017 Kbps
Width                            : 720 pixels
Height                           : 304 pixels
Display aspect ratio             : 2.35:1
Frame rate                       : 25.000 fps
Color space                      : YUV
Chroma subsampling               : 4:2:0
Bit depth                        : 8 bits
Scan type                        : Progressive
Bits/(Pixel*Frame)               : 0.369
Stream size                      : 1.14 GiB (82%)
Writing library                  : XviD 58

Audio
ID                               : 1
Format                           : AC-3
Format/Info                      : Audio Coding 3
Mode extension                   : CM (complete main)
Codec ID                         : 2000
Duration                         : 1h 21mn
Bit rate mode                    : Constant
Bit rate                         : 448 Kbps
Channel(s)                       : 6 channels
Channel positions                : Front: L C R, Side: L R, LFE
Sampling rate                    : 48.0 KHz
Bit depth                        : 16 bits
Stream size                      : 260 MiB (18%)
Alignment                        : Split accross interleaves
Interleave, duration             : 40 ms (1.00 video frame)
Interleave, preload duration     : 500 ms

NOTES:: T0XiC-iNK is proud to present, Gullivers Travels R5, the first R5 with our usual great LiNE, then
upscaled to 5.1 using genuine russian surrounds. Enjoy


::Why Complain? Whats Free Is Free::

::iNK is currently a free agent looking for work, if you would like iNK's touch, give me a email at:
...digital.ink@live.com

::We are always looking for friends with unreleased DVD's, Screeners, R5's, Audio, Cams, Silvers,
...and any other good sources you may have to offer - contact us: t0xicreleases@hushmail.com

::::::::::::::::::::::::::::::::::::   Respect To   :::::::::::::::::::::::::::::::::::::
::IMAGiNE,FLAWL3SS,Hive-CM8,Rx,DiGiTALiNK,Tranz,Vik,OneTwo,Joey,bob,Unevano & our friends on utn and PA::
                       "and to all of you who support us, Thank-You"


[img]http://www.leetleech.org/images/61535496140600475706.png[/img]
[img]http://www.leetleech.org/images/64462107549714088989.png[/img]
[img]http://www.leetleech.org/images/23902548089147234394.png[/img]
[img]http://www.leetleech.org/images/87660611403152454302.png[/img]
[img]http://www.leetleech.org/images/59894809770546614130.png[/img]